# xmcd CD database file
#
# Track frame offsets:
#	150
#	20685
#	38975
#	59482
#	84435
#	108912
#	128727
#	143360
#	163545
#	183252
#	204337
#
# Disc length: 2929 seconds
#
# Revision: 2
# Processed by: cddbd v1.4PL0 Copyright (c) Steve Scherf et al.
# Submitted via: CDex 1.50beta9
#
DISCID=890b6f0b
DTITLE=Las Chicas Del Can - Explosivo
DYEAR=1993
DGENRE=Merengue
TTITLE0=La Yerbita
TTITLE1=Celoso
TTITLE2=Voy Pa' Lla
TTITLE3=Hacer El Amor Con Otro
TTITLE4=Massage
TTITLE5=Tiburon
TTITLE6=Feo
TTITLE7=Sin Compromiso
TTITLE8=Herida De Muerte
TTITLE9=Explosivo
TTITLE10=Asi Ando Yo
EXTD=YEAR: 1993
EXTT0=
EXTT1=
EXTT2=
EXTT3=
EXTT4=
EXTT5=
EXTT6=
EXTT7=
EXTT8=
EXTT9=
EXTT10=
PLAYORDER=
